ffmpeg version 4.4.2-0ubuntu0.22.04.1 Copyright (c) 2000-2021 the FFmpeg developers
  built with gcc 11 (Ubuntu 11.2.0-19ubuntu1)
  configuration: --prefix=/usr --extra-version=0ubuntu0.22.04.1 --toolchain=hardened --libdir=/usr/lib/x86_64-linux-gnu --incdir=/usr/include/x86_64-linux-gnu --arch=amd64 --enable-gpl --disable-stripping --enable-gnutls --enable-ladspa --enable-libaom --enable-libass --enable-libbluray --enable-libbs2b --enable-libcaca --enable-libcdio --enable-libcodec2 --enable-libdav1d --enable-libflite --enable-libfontconfig --enable-libfreetype --enable-libfribidi --enable-libgme --enable-libgsm --enable-libjack --enable-libmp3lame --enable-libmysofa --enable-libopenjpeg --enable-libopenmpt --enable-libopus --enable-libpulse --enable-librabbitmq --enable-librubberband --enable-libshine --enable-libsnappy --enable-libsoxr --enable-libspeex --enable-libsrt --enable-libssh --enable-libtheora --enable-libtwolame --enable-libvidstab --enable-libvorbis --enable-libvpx --enable-libwebp --enable-libx265 --enable-libxml2 --enable-libxvid --enable-libzimg --enable-libzmq --enable-libzvbi --enable-lv2 --enable-omx --enable-openal --enable-opencl --enable-opengl --enable-sdl2 --enable-pocketsphinx --enable-librsvg --enable-libmfx --enable-libdc1394 --enable-libdrm --enable-libiec61883 --enable-chromaprint --enable-frei0r --enable-libx264 --enable-shared
  libavutil      56. 70.100 / 56. 70.100
  libavcodec     58.134.100 / 58.134.100
  libavformat    58. 76.100 / 58. 76.100
  libavdevice    58. 13.100 / 58. 13.100
  libavfilter     7.110.100 /  7.110.100
  libswscale      5.  9.100 /  5.  9.100
  libswresample   3.  9.100 /  3.  9.100
  libpostproc    55.  9.100 / 55.  9.100
Input #0, flv, from '/storage/32426326/20250724/32426326-20250724-161817-987.flv':
  Metadata:
    4.0             : false
    fps             : 60
    7.1             : false
    3.1             : false
    5.1             : false
    cdn_ip          : 192.168.252.4
    displayWidth    : 2560
    4.1             : false
    audiochannels   : 2
    displayHeight   : 1440
    fileSize        : 0
    2.1             : false
    encoder         : obs-output module (libobs version 31.0.2)
    Title           : 技术主播没有GG
    Artist          : 蓝音BuBuLine (32426326)
    Comment         : mikufans直播间 32426326 的直播录像
                    : 主播名: 蓝音BuBuLine
                    : 直播标题: 技术主播没有GG
                    : 直播分区: 单机游戏·主机游戏
                    : 录制时间: 2025-07-24T16:18:18.0891847+00:00
                    : 直播服务器:
                    : d1--ov-gotcha07.bilivideo.com [156.59.188.244]
                    : 
                    : 使用 mikufans录播姬 录制 https://rec.danmuji.org
                    : 录播姬版本: 2.17.3
    RecordedBy      : BililiveRecorder mikufans录播姬
    RecordedFrom    : d1--ov-gotcha07.bilivideo.com
    StreamServers   : d1--ov-gotcha07.bilivideo.com [156.59.188.244]
    RecorderVersion : 2.17.3+Branch.tags-v2.17.3.Sha.96407e2eba9a597dd9997c6fb731725f4294a371
    StartTime       : Thu, 24 Jul 2025 16:18:18 +0000
    RoomId          : 32426326
    ShortId         : 0
    Name            : 蓝音BuBuLine
    StreamTitle     : 技术主播没有GG
    AreaNameParent  : 单机游戏
    AreaNameChild   : 主机游戏
  Duration: 03:39:28.48, start: 0.035000, bitrate: 8270 kb/s
  Stream #0:0: Video: h264 (High), yuv420p(tv, bt709, progressive), 2560x1440 [SAR 1:1 DAR 16:9], 10240 kb/s, 60 fps, 60 tbr, 1k tbn, 120 tbc
  Stream #0:1: Audio: aac (LC), 48000 Hz, stereo, fltp, 196 kb/s
Stream mapping:
  Stream #0:0 -> #0:0 (h264 (native) -> png (native))
Press [q] to stop, [?] for help
Output #0, image2, to '/storage/32426326/20250724/32426326-20250724-161817-987.all.thumb.png':
  Metadata:
    4.0             : false
    fps             : 60
    7.1             : false
    3.1             : false
    5.1             : false
    cdn_ip          : 192.168.252.4
    displayWidth    : 2560
    4.1             : false
    audiochannels   : 2
    displayHeight   : 1440
    fileSize        : 0
    2.1             : false
    AreaNameChild   : 主机游戏
    Title           : 技术主播没有GG
    Artist          : 蓝音BuBuLine (32426326)
    Comment         : mikufans直播间 32426326 的直播录像
                    : 主播名: 蓝音BuBuLine
                    : 直播标题: 技术主播没有GG
                    : 直播分区: 单机游戏·主机游戏
                    : 录制时间: 2025-07-24T16:18:18.0891847+00:00
                    : 直播服务器:
                    : d1--ov-gotcha07.bilivideo.com [156.59.188.244]
                    : 
                    : 使用 mikufans录播姬 录制 https://rec.danmuji.org
                    : 录播姬版本: 2.17.3
    RecordedBy      : BililiveRecorder mikufans录播姬
    RecordedFrom    : d1--ov-gotcha07.bilivideo.com
    StreamServers   : d1--ov-gotcha07.bilivideo.com [156.59.188.244]
    RecorderVersion : 2.17.3+Branch.tags-v2.17.3.Sha.96407e2eba9a597dd9997c6fb731725f4294a371
    StartTime       : Thu, 24 Jul 2025 16:18:18 +0000
    RoomId          : 32426326
    ShortId         : 0
    Name            : 蓝音BuBuLine
    StreamTitle     : 技术主播没有GG
    AreaNameParent  : 单机游戏
    encoder         : Lavf58.76.100
  Stream #0:0: Video: png, rgb24(pc, gbr/bt709/bt709, progressive), 2560x1440 [SAR 1:1 DAR 16:9], q=2-31, 200 kb/s, 60 fps, 60 tbn
    Metadata:
      encoder         : Lavc58.134.100 png
frame=    1 fps=0.0 q=0.0 size=N/A time=00:00:00.00 bitrate=N/A dup=1 drop=0 speed=   0x    frame=    1 fps=0.0 q=-0.0 Lsize=N/A time=00:00:00.01 bitrate=N/A dup=1 drop=1 speed=0.0246x    
video:3354kB audio:0kB subtitle:0kB other streams:0kB global headers:0kB muxing overhead: unknown
ffmpeg version 4.4.2-0ubuntu0.22.04.1 Copyright (c) 2000-2021 the FFmpeg developers
  built with gcc 11 (Ubuntu 11.2.0-19ubuntu1)
  configuration: --prefix=/usr --extra-version=0ubuntu0.22.04.1 --toolchain=hardened --libdir=/usr/lib/x86_64-linux-gnu --incdir=/usr/include/x86_64-linux-gnu --arch=amd64 --enable-gpl --disable-stripping --enable-gnutls --enable-ladspa --enable-libaom --enable-libass --enable-libbluray --enable-libbs2b --enable-libcaca --enable-libcdio --enable-libcodec2 --enable-libdav1d --enable-libflite --enable-libfontconfig --enable-libfreetype --enable-libfribidi --enable-libgme --enable-libgsm --enable-libjack --enable-libmp3lame --enable-libmysofa --enable-libopenjpeg --enable-libopenmpt --enable-libopus --enable-libpulse --enable-librabbitmq --enable-librubberband --enable-libshine --enable-libsnappy --enable-libsoxr --enable-libspeex --enable-libsrt --enable-libssh --enable-libtheora --enable-libtwolame --enable-libvidstab --enable-libvorbis --enable-libvpx --enable-libwebp --enable-libx265 --enable-libxml2 --enable-libxvid --enable-libzimg --enable-libzmq --enable-libzvbi --enable-lv2 --enable-omx --enable-openal --enable-opencl --enable-opengl --enable-sdl2 --enable-pocketsphinx --enable-librsvg --enable-libmfx --enable-libdc1394 --enable-libdrm --enable-libiec61883 --enable-chromaprint --enable-frei0r --enable-libx264 --enable-shared
  libavutil      56. 70.100 / 56. 70.100
  libavcodec     58.134.100 / 58.134.100
  libavformat    58. 76.100 / 58. 76.100
  libavdevice    58. 13.100 / 58. 13.100
  libavfilter     7.110.100 /  7.110.100
  libswscale      5.  9.100 /  5.  9.100
  libswresample   3.  9.100 /  3.  9.100
  libpostproc    55.  9.100 / 55.  9.100
[flv @ 0x5564f6747400] Auto-inserting h264_mp4toannexb bitstream filter
Input #0, concat, from '/storage/32426326/20250724/32426326-20250724-161817-987.all.concat.txt':
  Duration: N/A, start: 0.000000, bitrate: 10436 kb/s
  Stream #0:0: Video: h264 (High), yuv420p(tv, bt709, progressive), 2560x1440 [SAR 1:1 DAR 16:9], 10240 kb/s, 60 fps, 60 tbr, 1k tbn, 120 tbc
  Stream #0:1: Audio: aac (LC), 48000 Hz, stereo, fltp, 196 kb/s
Output #0, flv, to '/storage/32426326/20250724/32426326-20250724-161817-987.all.flv':
  Metadata:
    encoder         : Lavf58.76.100
  Stream #0:0: Video: h264 (High) ([7][0][0][0] / 0x0007), yuv420p(tv, bt709, progressive), 2560x1440 [SAR 1:1 DAR 16:9], q=2-31, 10240 kb/s, 60 fps, 60 tbr, 1k tbn, 1k tbc
  Stream #0:1: Audio: aac (LC) ([10][0][0][0] / 0x000A), 48000 Hz, stereo, fltp, 196 kb/s
Stream mapping:
  Stream #0:0 -> #0:0 (copy)
  Stream #0:1 -> #0:1 (copy)
Press [q] to stop, [?] for help
frame=    1 fps=0.0 q=-1.0 size=       0kB time=00:00:00.00 bitrate=N/A speed=N/A    frame= 3159 fps=0.0 q=-1.0 size=   28416kB time=00:00:52.78 bitrate=4410.1kbits/s speed= 106x    frame= 5856 fps=5855 q=-1.0 size=   57600kB time=00:01:37.71 bitrate=4828.9kbits/s speed=97.7x    frame= 7749 fps=5165 q=-1.0 size=   83712kB time=00:02:09.24 bitrate=5306.0kbits/s speed=86.1x    frame=10674 fps=5335 q=-1.0 size=  109824kB time=00:02:57.95 bitrate=5055.7kbits/s speed=88.9x    frame=12630 fps=5049 q=-1.0 size=  137728kB time=00:03:30.54 bitrate=5358.9kbits/s speed=84.2x    frame=14245 fps=4746 q=-1.0 size=  164608kB time=00:03:57.47 bitrate=5678.3kbits/s speed=79.1x    frame=15819 fps=4517 q=-1.0 size=  192256kB time=00:04:23.69 bitrate=5972.7kbits/s speed=75.3x    frame=17344 fps=4334 q=-1.0 size=  220672kB time=00:04:49.06 bitrate=6253.7kbits/s speed=72.2x    frame=19407 fps=4310 q=-1.0 size=  249600kB time=00:05:23.45 bitrate=6321.5kbits/s speed=71.8x    frame=21568 fps=4311 q=-1.0 size=  278272kB time=00:05:59.43 bitrate=6342.2kbits/s speed=71.8x    frame=23196 fps=4214 q=-1.0 size=  307712kB time=00:06:26.55 bitrate=6521.1kbits/s speed=70.2x    frame=25707 fps=4282 q=-1.0 size=  339712kB time=00:07:08.38 bitrate=6496.2kbits/s speed=71.3x    frame=30813 fps=4737 q=-1.0 size=  370432kB time=00:08:33.45 bitrate=5910.1kbits/s speed=78.9x    frame=34973 fps=4992 q=-1.0 size=  400640kB time=00:09:42.74 bitrate=5632.0kbits/s speed=83.2x    frame=36635 fps=4881 q=-1.0 size=  432128kB time=00:10:10.42 bitrate=5799.3kbits/s speed=81.3x    frame=39048 fps=4877 q=-1.0 size=  463104kB time=00:10:50.59 bitrate=5831.2kbits/s speed=81.3x    frame=42866 fps=5039 q=-1.0 size=  495104kB time=00:11:54.19 bitrate=5678.9kbits/s speed=  84x    frame=44854 fps=4980 q=-1.0 size=  527104kB time=00:12:27.35 bitrate=5777.8kbits/s speed=  83x    frame=47238 fps=4969 q=-1.0 size=  558848kB time=00:13:07.06 bitrate=5816.7kbits/s speed=82.8x    frame=49711 fps=4967 q=-1.0 size=  589824kB time=00:13:48.25 bitrate=5833.8kbits/s speed=82.8x    frame=51547 fps=4905 q=-1.0 size=  622592kB time=00:14:18.82 bitrate=5938.7kbits/s speed=81.7x    frame=53441 fps=4854 q=-1.0 size=  655104kB time=00:14:50.37 bitrate=6027.3kbits/s speed=80.9x    frame=55314 fps=4806 q=-1.0 size=  687360kB time=00:15:21.57 bitrate=6110.1kbits/s speed=80.1x    frame=57254 fps=4767 q=-1.0 size=  719104kB time=00:15:53.91 bitrate=6175.5kbits/s speed=79.4x    frame=59567 fps=4761 q=-1.0 size=  750336kB time=00:16:32.42 bitrate=6193.7kbits/s speed=79.3x    frame=61156 fps=4700 q=-1.0 size=  783360kB time=00:16:58.87 bitrate=6298.4kbits/s speed=78.3x    frame=62795 fps=4647 q=-1.0 size=  815616kB time=00:17:26.19 bitrate=6386.5kbits/s speed=77.4x    frame=64614 fps=4611 q=-1.0 size=  847872kB time=00:17:56.50 bitrate=6452.1kbits/s speed=76.8x    frame=66218 fps=4562 q=-1.0 size=  879360kB time=00:18:23.21 bitrate=6529.8kbits/s speed=  76x    frame=67850 fps=4519 q=-1.0 size=  911872kB time=00:18:50.40 bitrate=6608.3kbits/s speed=75.3x    frame=70010 fps=4513 q=-1.0 size=  944384kB time=00:19:26.36 bitrate=6632.9kbits/s speed=75.2x    frame=72284 fps=4513 q=-1.0 size=  976640kB time=00:20:04.26 bitrate=6643.6kbits/s speed=75.2x    frame=74049 fps=4484 q=-1.0 size= 1008896kB time=00:20:33.66 bitrate=6699.5kbits/s speed=74.7x    frame=76157 fps=4476 q=-1.0 size= 1040896kB time=00:21:08.77 bitrate=6720.7kbits/s speed=74.6x    frame=78099 fps=4459 q=-1.0 size= 1072128kB time=00:21:41.13 bitrate=6750.2kbits/s speed=74.3x    frame=79859 fps=4433 q=-1.0 size= 1102080kB time=00:22:10.44 bitrate=6785.9kbits/s speed=73.8x    frame=82303 fps=4445 q=-1.0 size= 1132800kB time=00:22:51.08 bitrate=6768.3kbits/s speed=  74x    frame=84516 fps=4444 q=-1.0 size= 1162752kB time=00:23:27.96 bitrate=6765.3kbits/s speed=  74x    frame=86935 fps=4454 q=-1.0 size= 1192704kB time=00:24:08.24 bitrate=6746.5kbits/s speed=74.2x    frame=88579 fps=4425 q=-1.0 size= 1223680kB time=00:24:35.64 bitrate=6793.2kbits/s speed=73.7x    frame=90093 fps=4391 q=-1.0 size= 1255168kB time=00:25:00.85 bitrate=6851.0kbits/s speed=73.1x    frame=92535 fps=4402 q=-1.0 size= 1285120kB time=00:25:41.56 bitrate=6829.2kbits/s speed=73.3x    frame=94180 fps=4376 q=-1.0 size= 1315584kB time=00:26:08.94 bitrate=6869.1kbits/s speed=72.9x    frame=95784 fps=4350 q=-1.0 size= 1345792kB time=00:26:35.65 bitrate=6909.2kbits/s speed=72.5x    frame=97757 fps=4341 q=-1.0 size= 1375488kB time=00:27:08.54 bitrate=6919.1kbits/s speed=72.3x    frame=100147 fps=4350 q=-1.0 size= 1405952kB time=00:27:48.30 bitrate=6903.7kbits/s speed=72.5x    frame=101704 fps=4324 q=-1.0 size= 1436416kB time=00:28:14.25 bitrate=6945.3kbits/s speed=  72x    frame=103793 fps=4321 q=-1.0 size= 1467136kB time=00:28:49.03 bitrate=6951.2kbits/s speed=  72x    frame=105626 fps=4307 q=-1.0 size= 1497344kB time=00:29:19.57 bitrate=6971.1kbits/s speed=71.8x    frame=107377 fps=4291 q=-1.0 size= 1527808kB time=00:29:48.76 bitrate=6996.9kbits/s speed=71.5x    frame=109001 fps=4270 q=-1.0 size= 1558528kB time=00:30:15.81 bitrate=7031.3kbits/s speed=71.1x    frame=110793 fps=4257 q=-1.0 size= 1591552kB time=00:30:45.67 bitrate=7064.1kbits/s speed=70.9x    frame=112548 fps=4243 q=-1.0 size= 1624320kB time=00:31:14.91 bitrate=7097.1kbits/s speed=70.7x    frame=114743 fps=4246 q=-1.0 size= 1658880kB time=00:31:51.48 bitrate=7109.4kbits/s speed=70.7x    frame=116513 fps=4233 q=-1.0 size= 1692672kB time=00:32:20.97 bitrate=7144.0kbits/s speed=70.5x    frame=119076 fps=4249 q=-1.0 size= 1724160kB time=00:33:03.65 bitrate=7120.4kbits/s speed=70.8x    frame=120970 fps=4240 q=-1.0 size= 1760256kB time=00:33:35.23 bitrate=7155.5kbits/s speed=70.6x    frame=122765 fps=4229 q=-1.0 size= 1794816kB time=00:34:05.11 bitrate=7189.4kbits/s speed=70.5x    frame=127295 fps=4311 q=-1.0 size= 1824256kB time=00:35:20.54 bitrate=7047.4kbits/s speed=71.8x    frame=129357 fps=4308 q=-1.0 size= 1859328kB time=00:35:54.91 bitrate=7068.3kbits/s speed=71.8x    frame=131503 fps=4307 q=-1.0 size= 1894912kB time=00:36:30.70 bitrate=7085.9kbits/s speed=71.8x    frame=133723 fps=4310 q=-1.0 size= 1929472kB time=00:37:07.67 bitrate=7095.4kbits/s speed=71.8x    frame=135695 fps=4304 q=-1.0 size= 1965312kB time=00:37:40.53 bitrate=7122.1kbits/s speed=71.7x    frame=137417 fps=4290 q=-1.0 size= 1998336kB time=00:38:09.21 bitrate=7151.1kbits/s speed=71.5x    frame=139318 fps=4283 q=-1.0 size= 2033152kB time=00:38:40.86 bitrate=7176.5kbits/s speed=71.3x    frame=141134 fps=4273 q=-1.0 size= 2066432kB time=00:39:11.14 bitrate=7200.0kbits/s speed=71.2x    frame=142934 fps=4263 q=-1.0 size= 2101504kB time=00:39:41.13 bitrate=7230.0kbits/s speed=  71x    frame=144502 fps=4246 q=-1.0 size= 2132736kB time=00:40:07.23 bitrate=7257.9kbits/s speed=70.7x    frame=147005 fps=4257 q=-1.0 size= 2162944kB time=00:40:48.95 bitrate=7235.3kbits/s speed=70.9x    frame=149573 fps=4270 q=-1.0 size= 2194432kB time=00:41:31.69 bitrate=7214.7kbits/s speed=71.1x    frame=151267 fps=4257 q=-1.0 size= 2224896kB time=00:41:59.89 bitrate=7233.0kbits/s speed=70.9x    frame=153416 fps=4258 q=-1.0 size= 2258688kB time=00:42:35.70 bitrate=7239.9kbits/s speed=70.9x    frame=155135 fps=4246 q=-1.0 size= 2288128kB time=00:43:04.35 bitrate=7253.0kbits/s speed=70.7x    frame=156715 fps=4232 q=-1.0 size= 2318592kB time=00:43:30.70 bitrate=7275.4kbits/s speed=70.5x    frame=158916 fps=4234 q=-1.0 size= 2347520kB time=00:44:07.35 bitrate=7264.2kbits/s speed=70.5x    frame=160517 fps=4220 q=-1.0 size= 2379008kB time=00:44:34.03 bitrate=7288.2kbits/s speed=70.3x    frame=162715 fps=4223 q=-1.0 size= 2408704kB time=00:45:10.58 bitrate=7279.6kbits/s speed=70.3x    frame=164329 fps=4210 q=-1.0 size= 2438400kB time=00:45:37.50 bitrate=7296.9kbits/s speed=70.1x    frame=166193 fps=4204 q=-1.0 size= 2468096kB time=00:46:08.54 bitrate=7303.0kbits/s speed=  70x    frame=168027 fps=4197 q=-1.0 size= 2501120kB time=00:46:39.12 bitrate=7319.9kbits/s speed=69.9x    frame=169882 fps=4191 q=-1.0 size= 2535168kB time=00:47:10.00 bitrate=7338.5kbits/s speed=69.8x    frame=171464 fps=4178 q=-1.0 size= 2566912kB time=00:47:36.36 bitrate=7361.9kbits/s speed=69.6x    frame=173571 fps=4179 q=-1.0 size= 2601216kB time=00:48:11.44 bitrate=7369.7kbits/s speed=69.6x    frame=175172 fps=4167 q=-1.0 size= 2631680kB time=00:48:38.14 bitrate=7387.8kbits/s speed=69.4x    frame=177664 fps=4177 q=-1.0 size= 2662400kB time=00:49:19.68 bitrate=7369.2kbits/s speed=69.6x    frame=179410 fps=4169 q=-1.0 size= 2692096kB time=00:49:48.77 bitrate=7378.8kbits/s speed=69.4x    frame=181160 fps=4161 q=-1.0 size= 2721792kB time=00:50:17.91 bitrate=7388.2kbits/s speed=69.3x    frame=183293 fps=4162 q=-1.0 size= 2752000kB time=00:50:53.47 bitrate=7383.2kbits/s speed=69.3x    frame=185549 fps=4166 q=-1.0 size= 2782208kB time=00:51:31.02 bitrate=7373.6kbits/s speed=69.4x    frame=187217 fps=4157 q=-1.0 size= 2811904kB time=00:51:58.79 bitrate=7385.9kbits/s speed=69.2x    frame=188835 fps=4147 q=-1.0 size= 2842112kB time=00:52:25.74 bitrate=7401.3kbits/s speed=69.1x    frame=190340 fps=4134 q=-1.0 size= 2873344kB time=00:52:50.83 bitrate=7423.4kbits/s speed=68.9x    frame=191834 fps=4122 q=-1.0 size= 2903040kB time=00:53:15.69 bitrate=7441.8kbits/s speed=68.7x    frame=194019 fps=4124 q=-1.0 size= 2932736kB time=00:53:52.12 bitrate=7433.2kbits/s speed=68.7x    frame=195693 fps=4116 q=-1.0 size= 2963712kB time=00:54:19.99 bitrate=7447.5kbits/s speed=68.6x    frame=197355 fps=4107 q=-1.0 size= 2994432kB time=00:54:47.71 bitrate=7461.2kbits/s speed=68.4x    frame=199048 fps=4100 q=-1.0 size= 3024896kB time=00:55:15.89 bitrate=7473.1kbits/s speed=68.3x    frame=200783 fps=4093 q=-1.0 size= 3056896kB time=00:55:44.82 bitrate=7486.8kbits/s speed=68.2x    frame=202399 fps=4085 q=-1.0 size= 3087360kB time=00:56:11.72 bitrate=7501.1kbits/s speed=  68x    frame=204521 fps=4086 q=-1.0 size= 3119360kB time=00:56:47.07 bitrate=7500.2kbits/s speed=68.1x    frame=206729 fps=4090 q=-1.0 size= 3150848kB time=00:57:23.84 bitrate=7495.0kbits/s speed=68.1x    frame=208227 fps=4079 q=-1.0 size= 3181568kB time=00:57:48.76 bitrate=7513.7kbits/s speed=67.9x    frame=210651 fps=4086 q=-1.0 size= 3212800kB time=00:58:29.17 bitrate=7500.1kbits/s speed=68.1x    frame=212454 fps=4082 q=-1.0 size= 3244032kB time=00:58:59.21 bitrate=7508.8kbits/s speed=  68x    frame=214070 fps=4074 q=-1.0 size= 3275264kB time=00:59:26.11 bitrate=7523.9kbits/s speed=67.9x    frame=216234 fps=4076 q=-1.0 size= 3306496kB time=01:00:02.19 bitrate=7519.5kbits/s speed=67.9x    frame=217832 fps=4068 q=-1.0 size= 3338496kB time=01:00:28.79 bitrate=7536.7kbits/s speed=67.8x    frame=219374 fps=4059 q=-1.0 size= 3369472kB time=01:00:54.47 bitrate=7553.1kbits/s speed=67.6x    frame=222949 fps=4087 q=-1.0 size= 3399936kB time=01:01:54.01 bitrate=7499.2kbits/s speed=68.1x    frame=224649 fps=4081 q=-1.0 size= 3431680kB time=01:02:22.35 bitrate=7511.9kbits/s speed=  68x    frame=226176 fps=4071 q=-1.0 size= 3463424kB time=01:02:47.80 bitrate=7530.2kbits/s speed=67.8x    frame=227912 fps=4066 q=-1.0 size= 3495680kB time=01:03:16.72 bitrate=7542.5kbits/s speed=67.7x    frame=229443 fps=4057 q=-1.0 size= 3527936kB time=01:03:42.21 bitrate=7561.3kbits/s speed=67.6x    frame=230943 fps=4047 q=-1.0 size= 3558912kB time=01:04:07.21 bitrate=7578.1kbits/s speed=67.4x    frame=233051 fps=4049 q=-1.0 size= 3590144kB time=01:04:42.35 bitrate=7575.4kbits/s speed=67.4x    frame=235007 fps=4048 q=-1.0 size= 3621376kB time=01:05:14.92 bitrate=7577.8kbits/s speed=67.4x    frame=236530 fps=4039 q=-1.0 size= 3652096kB time=01:05:40.31 bitrate=7592.8kbits/s speed=67.3x    frame=238618 fps=4040 q=-1.0 size= 3684096kB time=01:06:15.10 bitrate=7592.3kbits/s speed=67.3x    frame=240292 fps=4034 q=-1.0 size= 3716608kB time=01:06:42.97 bitrate=7606.0kbits/s speed=67.2x    frame=241956 fps=4028 q=-1.0 size= 3748864kB time=01:07:10.70 bitrate=7619.2kbits/s speed=67.1x    frame=243602 fps=4022 q=-1.0 size= 3781632kB time=01:07:38.11 bitrate=7633.9kbits/s speed=  67x    frame=245741 fps=4024 q=-1.0 size= 3813120kB time=01:08:13.75 bitrate=7630.4kbits/s speed=  67x    frame=247455 fps=4020 q=-1.0 size= 3843840kB time=01:08:42.28 bitrate=7638.7kbits/s speed=  67x    frame=248980 fps=4012 q=-1.0 size= 3874304kB time=01:09:07.71 bitrate=7652.0kbits/s speed=66.8x    frame=251016 fps=4012 q=-1.0 size= 3905536kB time=01:09:41.59 bitrate=7651.2kbits/s speed=66.8x    frame=252580 fps=4005 q=-1.0 size= 3936512kB time=01:10:07.68 bitrate=7664.0kbits/s speed=66.7x    frame=254248 fps=4000 q=-1.0 size= 3968768kB time=01:10:35.45 bitrate=7676.2kbits/s speed=66.6x    frame=256169 fps=3998 q=-1.0 size= 3999488kB time=01:11:07.45 bitrate=7677.6kbits/s speed=66.6x    frame=257713 fps=3991 q=-1.0 size= 4031744kB time=01:11:33.17 bitrate=7693.1kbits/s speed=66.5x    frame=259331 fps=3986 q=-1.0 size= 4062464kB time=01:12:00.16 bitrate=7703.3kbits/s speed=66.4x    frame=261650 fps=3991 q=-1.0 size= 4094976kB time=01:12:38.78 bitrate=7696.2kbits/s speed=66.5x    frame=263539 fps=3989 q=-1.0 size= 4125184kB time=01:13:10.25 bitrate=7697.4kbits/s speed=66.4x    frame=265352 fps=3986 q=-1.0 size= 4156672kB time=01:13:40.46 bitrate=7703.1kbits/s speed=66.4x    frame=267044 fps=3982 q=-1.0 size= 4187904kB time=01:14:08.63 bitrate=7711.9kbits/s speed=66.3x    frame=268865 fps=3979 q=-1.0 size= 4218624kB time=01:14:38.98 bitrate=7715.8kbits/s speed=66.3x    frame=270708 fps=3977 q=-1.0 size= 4251648kB time=01:15:09.67 bitrate=7723.3kbits/s speed=66.2x    frame=272566 fps=3975 q=-1.0 size= 4288256kB time=01:15:40.58 bitrate=7736.8kbits/s speed=66.2x    frame=274264 fps=3971 q=-1.0 size= 4323840kB time=01:16:08.88 bitrate=7752.6kbits/s speed=66.1x    frame=276467 fps=3974 q=-1.0 size= 4357376kB time=01:16:45.58 bitrate=7750.5kbits/s speed=66.2x    frame=278513 fps=3975 q=-1.0 size= 4392448kB time=01:17:19.65 bitrate=7755.5kbits/s speed=66.2x    frame=280127 fps=3969 q=-1.0 size= 4424192kB time=01:17:46.53 bitrate=7766.6kbits/s speed=66.1x    frame=281974 fps=3967 q=-1.0 size= 4457472kB time=01:18:17.31 bitrate=7773.7kbits/s speed=66.1x    frame=283741 fps=3964 q=-1.0 size= 4490752kB time=01:18:46.77 bitrate=7783.0kbits/s speed=  66x    frame=285431 fps=3960 q=-1.0 size= 4522752kB time=01:19:14.91 bitrate=7792.0kbits/s speed=  66x    frame=287226 fps=3958 q=-1.0 size= 4555264kB time=01:19:44.80 bitrate=7799.0kbits/s speed=65.9x    frame=289692 fps=3964 q=-1.0 size= 4588032kB time=01:20:25.90 bitrate=7788.2kbits/s speed=  66x    frame=291442 fps=3961 q=-1.0 size= 4618240kB time=01:20:55.06 bitrate=7792.4kbits/s speed=  66x    frame=293766 fps=3965 q=-1.0 size= 4650752kB time=01:21:33.79 bitrate=7785.2kbits/s speed=66.1x    frame=296054 fps=3969 q=-1.0 size= 4683264kB time=01:22:11.88 bitrate=7779.0kbits/s speed=66.1x    frame=297736 fps=3965 q=-1.0 size= 4712960kB time=01:22:39.90 bitrate=7784.1kbits/s speed=66.1x    frame=300643 fps=3978 q=-1.0 size= 4744448kB time=01:23:28.33 bitrate=7760.4kbits/s speed=66.3x    frame=302551 fps=3976 q=-1.0 size= 4777472kB time=01:24:00.16 bitrate=7765.0kbits/s speed=66.2x    frame=304247 fps=3973 q=-1.0 size= 4810752kB time=01:24:28.41 bitrate=7775.5kbits/s speed=66.2x    frame=306678 fps=3978 q=-1.0 size= 4843264kB time=01:25:08.90 bitrate=7766.1kbits/s speed=66.3x    frame=309006 fps=3983 q=-1.0 size= 4876288kB time=01:25:47.70 bitrate=7760.1kbits/s speed=66.3x    frame=310571 fps=3977 q=-1.0 size= 4908800kB time=01:26:13.79 bitrate=7772.4kbits/s speed=66.3x    frame=312393 fps=3975 q=-1.0 size= 4942336kB time=01:26:44.14 bitrate=7779.9kbits/s speed=66.2x    frame=314651 fps=3978 q=-1.0 size= 4974848kB time=01:27:21.77 bitrate=7774.8kbits/s speed=66.3x    frame=316805 fps=3980 q=-1.0 size= 5007360kB time=01:27:57.66 bitrate=7772.4kbits/s speed=66.3x    frame=318355 fps=3975 q=-1.0 size= 5041664kB time=01:28:27.42 bitrate=7781.8kbits/s speed=66.3x    frame=319724 fps=3967 q=-1.0 size= 5075200kB time=01:29:01.48 bitrate=7783.6kbits/s speed=66.3x    frame=322116 fps=3972 q=-1.0 size= 5107712kB time=01:29:42.44 bitrate=7773.9kbits/s speed=66.4x    frame=325924 fps=3994 q=-1.0 size= 5138944kB time=01:31:00.39 bitrate=7709.7kbits/s speed=66.9x    frame=328293 fps=3999 q=-1.0 size= 5171456kB time=01:31:39.84 bitrate=7702.9kbits/s speed=  67x    frame=330512 fps=4002 q=-1.0 size= 5202176kB time=01:32:16.76 bitrate=7696.9kbits/s speed=  67x    frame=333599 fps=4015 q=-1.0 size= 5236224kB time=01:33:08.20 bitrate=7676.0kbits/s speed=67.2x    frame=335838 fps=4017 q=-1.0 size= 5268480kB time=01:33:45.48 bitrate=7672.1kbits/s speed=67.3x    frame=338457 fps=4025 q=-1.0 size= 5300736kB time=01:34:29.11 bitrate=7659.7kbits/s speed=67.4x    frame=340139 fps=4021 q=-1.0 size= 5334272kB time=01:34:57.11 bitrate=7670.3kbits/s speed=67.3x    frame=341863 fps=4017 q=-1.0 size= 5369856kB time=01:35:25.83 bitrate=7682.7kbits/s speed=67.3x    frame=343531 fps=4013 q=-1.0 size= 5402880kB time=01:35:53.61 bitrate=7692.6kbits/s speed=67.2x    frame=345223 fps=4010 q=-1.0 size= 5435648kB time=01:36:21.82 bitrate=7701.5kbits/s speed=67.2x    frame=347232 fps=4010 q=-1.0 size= 5470208kB time=01:36:55.29 bitrate=7705.9kbits/s speed=67.2x    frame=348935 fps=4006 q=-1.0 size= 5505280kB time=01:37:23.62 bitrate=7717.7kbits/s speed=67.1x    frame=350795 fps=4004 q=-1.0 size= 5541120kB time=01:37:54.61 bitrate=7727.0kbits/s speed=67.1x    frame=352502 fps=4001 q=-1.0 size= 5574656kB time=01:38:23.06 bitrate=7736.3kbits/s speed=  67x    frame=354151 fps=3997 q=-1.0 size= 5607168kB time=01:38:50.54 bitrate=7745.3kbits/s speed=66.9x    frame=355913 fps=3994 q=-1.0 size= 5640704kB time=01:39:19.91 bitrate=7753.2kbits/s speed=66.9x    frame=358373 fps=4000 q=-1.0 size= 5673984kB time=01:40:00.88 bitrate=7745.7kbits/s speed=  67x    frame=359994 fps=3995 q=-1.0 size= 5707264kB time=01:40:27.88 bitrate=7756.3kbits/s speed=66.9x    frame=361643 fps=3991 q=-1.0 size= 5740544kB time=01:40:55.32 bitrate=7766.1kbits/s speed=66.8x    frame=363369 fps=3988 q=-1.0 size= 5774336kB time=01:41:24.09 bitrate=7774.9kbits/s speed=66.8x    frame=364955 fps=3984 q=-1.0 size= 5806336kB time=01:41:50.51 bitrate=7784.2kbits/s speed=66.7x    frame=366454 fps=3979 q=-1.0 size= 5837312kB time=01:42:15.48 bitrate=7793.9kbits/s speed=66.6x    frame=368936 fps=3984 q=-1.0 size= 5868032kB time=01:42:56.82 bitrate=7782.5kbits/s speed=66.7x    frame=370527 fps=3980 q=-1.0 size= 5900032kB time=01:43:23.35 bitrate=7791.4kbits/s speed=66.6x    frame=372228 fps=3976 q=-1.0 size= 5932544kB time=01:43:51.70 bitrate=7798.7kbits/s speed=66.6x    frame=374117 fps=3975 q=-1.0 size= 5966336kB time=01:44:23.17 bitrate=7803.7kbits/s speed=66.6x    frame=375926 fps=3973 q=-1.0 size= 5998336kB time=01:44:53.29 bitrate=7808.1kbits/s speed=66.5x    frame=377452 fps=3969 q=-1.0 size= 6030080kB time=01:45:18.72 bitrate=7817.8kbits/s speed=66.4x    frame=379337 fps=3968 q=-1.0 size= 6065152kB time=01:45:50.15 bitrate=7824.3kbits/s speed=66.4x    frame=381971 fps=3974 q=-1.0 size= 6098688kB time=01:46:34.04 bitrate=7813.6kbits/s speed=66.5x    frame=383852 fps=3973 q=-1.0 size= 6134016kB time=01:47:05.35 bitrate=7820.6kbits/s speed=66.5x    frame=385758 fps=3972 q=-1.0 size= 6169088kB time=01:47:37.13 bitrate=7826.6kbits/s speed=66.5x    frame=387913 fps=3974 q=-1.0 size= 6201856kB time=01:48:13.04 bitrate=7824.6kbits/s speed=66.5x    frame=389690 fps=3972 q=-1.0 size= 6234368kB time=01:48:42.63 bitrate=7830.0kbits/s speed=66.5x    frame=391607 fps=3971 q=-1.0 size= 6267136kB time=01:49:14.56 bitrate=7832.8kbits/s speed=66.5x    frame=393568 fps=3971 q=-1.0 size= 6300416kB time=01:49:47.24 bitrate=7835.3kbits/s speed=66.5x    frame=395262 fps=3968 q=-1.0 size= 6333440kB time=01:50:15.46 bitrate=7842.8kbits/s speed=66.4x    frame=397043 fps=3966 q=-1.0 size= 6368000kB time=01:50:45.13 bitrate=7850.4kbits/s speed=66.4x    frame=398723 fps=3963 q=-1.0 size= 6401280kB time=01:51:13.10 bitrate=7858.3kbits/s speed=66.3x    frame=400726 fps=3963 q=-1.0 size= 6435584kB time=01:51:46.48 bitrate=7861.1kbits/s speed=66.3x    frame=402998 fps=3966 q=-1.0 size= 6469120kB time=01:52:24.32 bitrate=7857.7kbits/s speed=66.4x    frame=404940 fps=3965 q=-1.0 size= 6501376kB time=01:52:56.67 bitrate=7859.2kbits/s speed=66.4x    frame=406677 fps=3963 q=-1.0 size= 6533376kB time=01:53:25.59 bitrate=7864.3kbits/s speed=66.3x    frame=408615 fps=3963 q=-1.0 size= 6568960kB time=01:53:57.89 bitrate=7869.8kbits/s speed=66.3x    frame=410334 fps=3960 q=-1.0 size= 6601216kB time=01:54:26.53 bitrate=7875.5kbits/s speed=66.3x    frame=412268 fps=3960 q=-1.0 size= 6637056kB time=01:54:58.75 bitrate=7881.2kbits/s speed=66.3x    frame=414047 fps=3958 q=-1.0 size= 6670592kB time=01:55:28.40 bitrate=7887.2kbits/s speed=66.2x    frame=415715 fps=3955 q=-1.0 size= 6703104kB time=01:55:56.19 bitrate=7894.0kbits/s speed=66.2x    frame=417415 fps=3952 q=-1.0 size= 6732544kB time=01:56:24.50 bitrate=7896.5kbits/s speed=66.1x    frame=419057 fps=3949 q=-1.0 size= 6764800kB time=01:56:51.87 bitrate=7903.3kbits/s speed=66.1x    frame=421609 fps=3954 q=-1.0 size= 6798336kB time=01:57:34.39 bitrate=7894.7kbits/s speed=66.2x    frame=423368 fps=3952 q=-1.0 size= 6831616kB time=01:58:03.69 bitrate=7900.5kbits/s speed=66.1x    frame=424930 fps=3948 q=-1.0 size= 6863360kB time=01:58:29.69 bitrate=7908.2kbits/s speed=66.1x    frame=426518 fps=3945 q=-1.0 size= 6895360kB time=01:58:56.18 bitrate=7915.5kbits/s speed=  66x    frame=428267 fps=3943 q=-1.0 size= 6929664kB time=01:59:25.29 bitrate=7922.6kbits/s speed=  66x    frame=429878 fps=3939 q=-1.0 size= 6961152kB time=01:59:52.14 bitrate=7928.9kbits/s speed=65.9x    frame=431943 fps=3940 q=-1.0 size= 6996224kB time=02:00:26.54 bitrate=7930.9kbits/s speed=65.9x    frame=433673 fps=3938 q=-1.0 size= 7030016kB time=02:00:55.39 bitrate=7937.5kbits/s speed=65.9x    frame=435880 fps=3940 q=-1.0 size= 7065344kB time=02:01:32.16 bitrate=7937.2kbits/s speed=65.9x    frame=437717 fps=3939 q=-1.0 size= 7100928kB time=02:02:02.74 bitrate=7943.9kbits/s speed=65.9x    frame=439455 fps=3937 q=-1.0 size= 7133184kB time=02:02:31.69 bitrate=7948.5kbits/s speed=65.9x    frame=441310 fps=3936 q=-1.0 size= 7167744kB time=02:03:02.61 bitrate=7953.6kbits/s speed=65.8x    frame=443144 fps=3935 q=-1.0 size= 7203328kB time=02:03:33.18 bitrate=7960.1kbits/s speed=65.8x    frame=445090 fps=3934 q=-1.0 size= 7239680kB time=02:04:05.58 bitrate=7965.5kbits/s speed=65.8x    frame=446894 fps=3933 q=-1.0 size= 7274752kB time=02:04:35.66 bitrate=7971.8kbits/s speed=65.8x    frame=448666 fps=3931 q=-1.0 size= 7309312kB time=02:05:05.18 bitrate=7978.2kbits/s speed=65.8x    frame=450325 fps=3929 q=-1.0 size= 7343360kB time=02:05:32.80 bitrate=7986.0kbits/s speed=65.7x    frame=452144 fps=3927 q=-1.0 size= 7377408kB time=02:06:03.11 bitrate=7990.9kbits/s speed=65.7x    frame=454050 fps=3927 q=-1.0 size= 7414272kB time=02:06:34.87 bitrate=7997.2kbits/s speed=65.7x    frame=455847 fps=3925 q=-1.0 size= 7448832kB time=02:07:04.80 bitrate=8002.9kbits/s speed=65.7x    frame=457797 fps=3925 q=-1.0 size= 7485184kB time=02:07:37.32 bitrate=8007.8kbits/s speed=65.7x    frame=459660 fps=3924 q=-1.0 size= 7521536kB time=02:08:08.32 bitrate=8014.3kbits/s speed=65.6x    frame=461292 fps=3922 q=-1.0 size= 7554304kB time=02:08:35.53 bitrate=8020.8kbits/s speed=65.6x    frame=462889 fps=3919 q=-1.0 size= 7586816kB time=02:09:02.14 bitrate=8027.6kbits/s speed=65.5x    frame=464822 fps=3918 q=-1.0 size= 7623424kB time=02:09:34.35 bitrate=8033.0kbits/s speed=65.5x    frame=466530 fps=3916 q=-1.0 size= 7657216kB time=02:10:02.78 bitrate=8039.2kbits/s speed=65.5x    frame=468314 fps=3915 q=-1.0 size= 7693824kB time=02:10:32.50 bitrate=8047.0kbits/s speed=65.5x    frame=470345 fps=3915 q=-1.0 size= 7730944kB time=02:11:06.35 bitrate=8051.0kbits/s speed=65.5x    frame=472195 fps=3914 q=-1.0 size= 7766272kB time=02:11:37.14 bitrate=8056.2kbits/s speed=65.5x    frame=474179 fps=3915 q=-1.0 size= 7803136kB time=02:12:10.19 bitrate=8060.7kbits/s speed=65.5x    frame=476016 fps=3914 q=-1.0 size= 7840512kB time=02:12:40.77 bitrate=8068.2kbits/s speed=65.4x    frame=477799 fps=3912 q=-1.0 size= 7875072kB time=02:13:10.46 bitrate=8073.7kbits/s speed=65.4x    frame=479554 fps=3910 q=-1.0 size= 7909376kB time=02:13:39.72 bitrate=8079.3kbits/s speed=65.4x    frame=481814 fps=3913 q=-1.0 size= 7945472kB time=02:14:17.38 bitrate=8078.2kbits/s speed=65.4x    frame=483763 fps=3913 q=-1.0 size= 7980544kB time=02:14:49.87 bitrate=8081.3kbits/s speed=65.4x    frame=485611 fps=3912 q=-1.0 size= 8014336kB time=02:15:20.61 bitrate=8084.8kbits/s speed=65.4x    frame=487353 fps=3910 q=-1.0 size= 8050432kB time=02:15:49.64 bitrate=8092.3kbits/s speed=65.4x    frame=489095 fps=3909 q=-1.0 size= 8086272kB time=02:16:18.67 bitrate=8099.4kbits/s speed=65.4x    frame=490707 fps=3906 q=-1.0 size= 8119296kB time=02:16:45.54 bitrate=8105.9kbits/s speed=65.3x    frame=493264 fps=3911 q=-1.0 size= 8156160kB time=02:17:28.12 bitrate=8100.7kbits/s speed=65.4x    frame=495015 fps=3909 q=-1.0 size= 8190720kB time=02:17:57.29 bitrate=8106.3kbits/s speed=65.4x    frame=496857 fps=3908 q=-1.0 size= 8226560kB time=02:18:27.99 bitrate=8111.7kbits/s speed=65.3x    frame=498911 fps=3909 q=-1.0 size= 8263680kB time=02:19:02.19 bitrate=8114.9kbits/s speed=65.4x    frame=500598 fps=3907 q=-1.0 size= 8296960kB time=02:19:30.31 bitrate=8120.2kbits/s speed=65.3x    frame=502370 fps=3905 q=-1.0 size= 8331776kB time=02:19:59.84 bitrate=8125.6kbits/s speed=65.3x    frame=504130 fps=3904 q=-1.0 size= 8366848kB time=02:20:29.17 bitrate=8131.4kbits/s speed=65.3x    frame=505865 fps=3902 q=-1.0 size= 8401152kB time=02:20:58.07 bitrate=8136.9kbits/s speed=65.2x    frame=507575 fps=3900 q=-1.0 size= 8434944kB time=02:21:26.56 bitrate=8142.2kbits/s speed=65.2x    frame=509700 fps=3902 q=-1.0 size= 8473344kB time=02:22:01.95 bitrate=8145.3kbits/s speed=65.2x    frame=511464 fps=3900 q=-1.0 size= 8508160kB time=02:22:31.34 bitrate=8150.6kbits/s speed=65.2x    frame=513412 fps=3900 q=-1.0 size= 8545024kB time=02:23:03.79 bitrate=8155.0kbits/s speed=65.2x    frame=515361 fps=3900 q=-1.0 size= 8581632kB time=02:23:36.26 bitrate=8159.1kbits/s speed=65.2x    frame=517197 fps=3899 q=-1.0 size= 8616704kB time=02:24:06.86 bitrate=8163.4kbits/s speed=65.2x    frame=518999 fps=3898 q=-1.0 size= 8651520kB time=02:24:36.89 bitrate=8168.0kbits/s speed=65.2x    frame=520857 fps=3897 q=-1.0 size= 8688384kB time=02:25:07.80 bitrate=8173.7kbits/s speed=65.2x    frame=522582 fps=3896 q=-1.0 size= 8722432kB time=02:25:36.56 bitrate=8178.7kbits/s speed=65.1x    frame=524598 fps=3896 q=-1.0 size= 8760064kB time=02:26:10.15 bitrate=8182.6kbits/s speed=65.1x    frame=526362 fps=3895 q=-1.0 size= 8795136kB time=02:26:39.51 bitrate=8187.9kbits/s speed=65.1x    frame=528114 fps=3893 q=-1.0 size= 8829696kB time=02:27:08.71 bitrate=8192.9kbits/s speed=65.1x    frame=530050 fps=3893 q=-1.0 size= 8865280kB time=02:27:40.94 bitrate=8196.0kbits/s speed=65.1x    frame=531881 fps=3892 q=-1.0 size= 8901632kB time=02:28:11.48 bitrate=8201.4kbits/s speed=65.1x    frame=533690 fps=3891 q=-1.0 size= 8937728kB time=02:28:41.62 bitrate=8206.8kbits/s speed=65.1x    frame=535692 fps=3892 q=-1.0 size= 8975104kB time=02:29:14.98 bitrate=8210.4kbits/s speed=65.1x    frame=537521 fps=3891 q=-1.0 size= 9012224kB time=02:29:45.43 bitrate=8216.4kbits/s speed=  65x    frame=539307 fps=3890 q=-1.0 size= 9046784kB time=02:30:15.18 bitrate=8220.7kbits/s speed=  65x    frame=540999 fps=3888 q=-1.0 size= 9080576kB time=02:30:43.37 bitrate=8225.7kbits/s speed=  65x    frame=542691 fps=3886 q=-1.0 size= 9114624kB time=02:31:11.56 bitrate=8230.9kbits/s speed=  65x    frame=544345 fps=3884 q=-1.0 size= 9147136kB time=02:31:39.13 bitrate=8235.2kbits/s speed=64.9x    frame=546225 fps=3884 q=-1.0 size= 9181184kB time=02:32:10.47 bitrate=8237.5kbits/s speed=64.9x    frame=548185 fps=3884 q=-1.0 size= 9218560kB time=02:32:43.11 bitrate=8241.6kbits/s speed=64.9x    frame=550019 fps=3883 q=-1.0 size= 9254912kB time=02:33:13.65 bitrate=8246.6kbits/s speed=64.9x    frame=551966 fps=3883 q=-1.0 size= 9291776kB time=02:33:46.10 bitrate=8250.3kbits/s speed=64.9x    frame=554021 fps=3884 q=-1.0 size= 9329664kB time=02:34:20.36 bitrate=8253.3kbits/s speed=64.9x    frame=555769 fps=3882 q=-1.0 size= 9365248kB time=02:34:49.45 bitrate=8258.8kbits/s speed=64.9x    frame=557721 fps=3882 q=-1.0 size= 9401600kB time=02:35:21.99 bitrate=8262.0kbits/s speed=64.9x    frame=559628 fps=3882 q=-1.0 size= 9438464kB time=02:35:53.73 bitrate=8266.2kbits/s speed=64.9x    frame=561449 fps=3881 q=-1.0 size= 9471744kB time=02:36:24.09 bitrate=8268.5kbits/s speed=64.9x    frame=563269 fps=3880 q=-1.0 size= 9508096kB time=02:36:54.41 bitrate=8273.5kbits/s speed=64.9x    frame=565099 fps=3880 q=-1.0 size= 9544704kB time=02:37:24.88 bitrate=8278.6kbits/s speed=64.8x    frame=568745 fps=3891 q=-1.0 size= 9578240kB time=02:38:25.64 bitrate=8254.6kbits/s speed=  65x    frame=570949 fps=3893 q=-1.0 size= 9614848kB time=02:39:02.36 bitrate=8254.2kbits/s speed=65.1x    frame=573068 fps=3894 q=-1.0 size= 9650432kB time=02:39:37.65 bitrate=8254.2kbits/s speed=65.1x    frame=576017 fps=3901 q=-1.0 size= 9684224kB time=02:40:26.74 bitrate=8240.9kbits/s speed=65.2x    frame=577995 fps=3901 q=-1.0 size= 9720320kB time=02:40:59.69 bitrate=8243.4kbits/s speed=65.2x    frame=579906 fps=3901 q=-1.0 size= 9756416kB time=02:41:31.53 bitrate=8246.8kbits/s speed=65.2x    frame=581570 fps=3899 q=-1.0 size= 9789184kB time=02:41:59.25 bitrate=8250.9kbits/s speed=65.2x    frame=583507 fps=3899 q=-1.0 size= 9822464kB time=02:42:31.57 bitrate=8251.6kbits/s speed=65.2x    frame=585516 fps=3899 q=-1.0 size= 9858816kB time=02:43:05.02 bitrate=8253.8kbits/s speed=65.2x    frame=587523 fps=3900 q=-1.0 size= 9894144kB time=02:43:38.45 bitrate=8255.2kbits/s speed=65.2x    frame=590217 fps=3904 q=-1.0 size= 9929984kB time=02:44:23.33 bitrate=8247.4kbits/s speed=65.2x    frame=592548 fps=3907 q=-1.0 size= 9966592kB time=02:45:02.16 bitrate=8245.3kbits/s speed=65.3x    frame=594284 fps=3906 q=-1.0 size=10000128kB time=02:45:31.06 bitrate=8249.0kbits/s speed=65.3x    frame=596329 fps=3906 q=-1.0 size=10036992kB time=02:46:05.14 bitrate=8251.1kbits/s speed=65.3x    frame=598240 fps=3906 q=-1.0 size=10073088kB time=02:46:36.98 bitrate=8254.4kbits/s speed=65.3x    frame=600206 fps=3906 q=-1.0 size=10107904kB time=02:47:09.73 bitrate=8255.8kbits/s speed=65.3x    frame=602012 fps=3905 q=-1.0 size=10143488kB time=02:47:39.83 bitrate=8260.1kbits/s speed=65.3x    frame=603975 fps=3905 q=-1.0 size=10180096kB time=02:48:12.52 bitrate=8263.1kbits/s speed=65.3x    frame=605861 fps=3905 q=-1.0 size=10214144kB time=02:48:43.96 bitrate=8265.0kbits/s speed=65.2x    frame=608342 fps=3908 q=-1.0 size=10247168kB time=02:49:25.26 bitrate=8258.0kbits/s speed=65.3x    frame=610425 fps=3909 q=-1.0 size=10280960kB time=02:49:59.95 bitrate=8257.1kbits/s speed=65.3x    frame=612214 fps=3908 q=-1.0 size=10315264kB time=02:50:29.77 bitrate=8260.5kbits/s speed=65.3x    frame=614338 fps=3909 q=-1.0 size=10347776kB time=02:51:05.16 bitrate=8257.9kbits/s speed=65.3x    frame=616429 fps=3910 q=-1.0 size=10383104kB time=02:51:40.02 bitrate=8258.1kbits/s speed=65.3x    frame=618355 fps=3909 q=-1.0 size=10419200kB time=02:52:12.10 bitrate=8261.1kbits/s speed=65.3x    frame=620192 fps=3909 q=-1.0 size=10454784kB time=02:52:42.68 bitrate=8264.8kbits/s speed=65.3x    frame=622161 fps=3909 q=-1.0 size=10491136kB time=02:53:15.47 bitrate=8267.4kbits/s speed=65.3x    frame=623945 fps=3908 q=-1.0 size=10525952kB time=02:53:45.20 bitrate=8271.2kbits/s speed=65.3x    frame=625817 fps=3907 q=-1.0 size=10561792kB time=02:54:16.39 bitrate=8274.6kbits/s speed=65.3x    frame=627637 fps=3906 q=-1.0 size=10597376kB time=02:54:46.70 bitrate=8278.5kbits/s speed=65.3x    frame=630103 fps=3910 q=-1.0 size=10627840kB time=02:55:27.81 bitrate=8269.8kbits/s speed=65.3x    frame=632263 fps=3911 q=-1.0 size=10660096kB time=02:56:03.79 bitrate=8266.7kbits/s speed=65.3x    frame=633875 fps=3909 q=-1.0 size=10692864kB time=02:56:30.67 bitrate=8271.0kbits/s speed=65.3x    frame=635596 fps=3907 q=-1.0 size=10725888kB time=02:56:59.33 bitrate=8274.2kbits/s speed=65.3x    frame=637219 fps=3905 q=-1.0 size=10758144kB time=02:57:26.35 bitrate=8278.0kbits/s speed=65.2x    frame=639648 fps=3908 q=-1.0 size=10793216kB time=02:58:06.84 bitrate=8273.5kbits/s speed=65.3x    frame=641719 fps=3909 q=-1.0 size=10825216kB time=02:58:41.33 bitrate=8271.4kbits/s speed=65.3x    frame=643639 fps=3908 q=-1.0 size=10859264kB time=02:59:13.29 bitrate=8272.7kbits/s speed=65.3x    frame=645659 fps=3909 q=-1.0 size=10894848kB time=02:59:46.92 bitrate=8274.0kbits/s speed=65.3x    frame=647452 fps=3908 q=-1.0 size=10928896kB time=03:00:16.82 bitrate=8276.9kbits/s speed=65.3x    frame=649370 fps=3908 q=-1.0 size=10964480kB time=03:00:48.74 bitrate=8279.4kbits/s speed=65.3x    frame=651304 fps=3908 q=-1.0 size=10999808kB time=03:01:20.96 bitrate=8281.5kbits/s speed=65.3x    frame=653257 fps=3908 q=-1.0 size=11033088kB time=03:01:53.49 bitrate=8281.8kbits/s speed=65.3x    frame=655126 fps=3907 q=-1.0 size=11068160kB time=03:02:24.61 bitrate=8284.5kbits/s speed=65.3x    frame=657005 fps=3907 q=-1.0 size=11104256kB time=03:02:55.93 bitrate=8287.8kbits/s speed=65.3x    frame=658729 fps=3905 q=-1.0 size=11137280kB time=03:03:24.64 bitrate=8290.7kbits/s speed=65.2x    frame=660679 fps=3905 q=-1.0 size=11172864kB time=03:03:57.11 bitrate=8292.8kbits/s speed=65.2x    frame=662463 fps=3904 q=-1.0 size=11207424kB time=03:04:26.85 bitrate=8296.1kbits/s speed=65.2x    frame=664232 fps=3903 q=-1.0 size=11240960kB time=03:04:56.32 bitrate=8298.8kbits/s speed=65.2x    frame=666163 fps=3903 q=-1.0 size=11271936kB time=03:05:28.48 bitrate=8297.6kbits/s speed=65.2x    frame=668002 fps=3902 q=-1.0 size=11303168kB time=03:05:59.10 bitrate=8297.8kbits/s speed=65.2x    frame=669696 fps=3901 q=-1.0 size=11335936kB time=03:06:27.34 bitrate=8300.8kbits/s speed=65.2x    frame=672115 fps=3903 q=-1.0 size=11367936kB time=03:07:07.64 bitrate=8294.4kbits/s speed=65.2x    frame=673943 fps=3903 q=-1.0 size=11403520kB time=03:07:38.09 bitrate=8297.8kbits/s speed=65.2x    frame=675804 fps=3902 q=-1.0 size=11436032kB time=03:08:09.09 bitrate=8298.6kbits/s speed=65.2x    frame=677520 fps=3901 q=-1.0 size=11469568kB time=03:08:37.64 bitrate=8302.0kbits/s speed=65.2x    frame=679355 fps=3900 q=-1.0 size=11501568kB time=03:09:08.23 bitrate=8302.7kbits/s speed=65.2x    frame=681298 fps=3900 q=-1.0 size=11537408kB time=03:09:40.61 bitrate=8304.9kbits/s speed=65.1x    frame=683920 fps=3904 q=-1.0 size=11571456kB time=03:10:24.26 bitrate=8297.5kbits/s speed=65.2x    frame=685667 fps=3903 q=-1.0 size=11604992kB time=03:10:53.36 bitrate=8300.5kbits/s speed=65.2x    frame=687742 fps=3903 q=-1.0 size=11640320kB time=03:11:27.95 bitrate=8300.7kbits/s speed=65.2x    frame=689626 fps=3903 q=-1.0 size=11676672kB time=03:11:59.32 bitrate=8303.9kbits/s speed=65.2x    frame=691550 fps=3903 q=-1.0 size=11712768kB time=03:12:31.38 bitrate=8306.5kbits/s speed=65.2x    frame=693610 fps=3903 q=-1.0 size=11749120kB time=03:13:05.72 bitrate=8307.5kbits/s speed=65.2x    frame=695646 fps=3904 q=-1.0 size=11783680kB time=03:13:39.63 bitrate=8307.7kbits/s speed=65.2x    frame=699435 fps=3914 q=-1.0 size=11817216kB time=03:14:42.76 bitrate=8286.3kbits/s speed=65.4x    frame=701911 fps=3917 q=-1.0 size=11853312kB time=03:15:24.05 bitrate=8282.3kbits/s speed=65.4x    frame=703660 fps=3916 q=-1.0 size=11888128kB time=03:15:53.18 bitrate=8286.1kbits/s speed=65.4x    frame=706279 fps=3920 q=-1.0 size=11923200kB time=03:16:36.81 bitrate=8279.8kbits/s speed=65.5x    frame=708279 fps=3920 q=-1.0 size=11959040kB time=03:17:10.12 bitrate=8281.3kbits/s speed=65.5x    frame=710053 fps=3919 q=-1.0 size=11994112kB time=03:17:39.67 bitrate=8284.9kbits/s speed=65.5x    frame=711774 fps=3917 q=-1.0 size=12029184kB time=03:18:08.31 bitrate=8289.1kbits/s speed=65.4x    frame=713579 fps=3917 q=-1.0 size=12065280kB time=03:18:38.39 bitrate=8293.0kbits/s speed=65.4x    frame=715300 fps=3915 q=-1.0 size=12100352kB time=03:19:07.08 bitrate=8297.1kbits/s speed=65.4x    frame=717031 fps=3914 q=-1.0 size=12135168kB time=03:19:35.90 bitrate=8300.9kbits/s speed=65.4x    frame=718874 fps=3913 q=-1.0 size=12171520kB time=03:20:06.64 bitrate=8304.5kbits/s speed=65.4x    frame=720611 fps=3912 q=-1.0 size=12206080kB time=03:20:35.56 bitrate=8308.1kbits/s speed=65.3x    frame=722425 fps=3911 q=-1.0 size=12241408kB time=03:21:05.79 bitrate=8311.2kbits/s speed=65.3x    frame=724361 fps=3911 q=-1.0 size=12276480kB time=03:21:38.05 bitrate=8312.8kbits/s speed=65.3x    frame=726105 fps=3910 q=-1.0 size=12311040kB time=03:22:07.09 bitrate=8316.3kbits/s speed=65.3x    frame=728652 fps=3913 q=-1.0 size=12344832kB time=03:22:49.51 bitrate=8310.0kbits/s speed=65.4x    frame=731258 fps=3917 q=-1.0 size=12379648kB time=03:23:32.90 bitrate=8303.8kbits/s speed=65.4x    frame=733000 fps=3916 q=-1.0 size=12414464kB time=03:24:01.93 bitrate=8307.5kbits/s speed=65.4x    frame=734934 fps=3915 q=-1.0 size=12451072kB time=03:24:34.16 bitrate=8310.1kbits/s speed=65.4x    frame=736822 fps=3915 q=-1.0 size=12486912kB time=03:25:05.62 bitrate=8312.7kbits/s speed=65.4x    frame=738611 fps=3914 q=-1.0 size=12521472kB time=03:25:35.42 bitrate=8315.6kbits/s speed=65.4x    frame=740450 fps=3914 q=-1.0 size=12557056kB time=03:26:06.01 bitrate=8318.6kbits/s speed=65.4x    frame=743026 fps=3917 q=-1.0 size=12591360kB time=03:26:48.95 bitrate=8312.4kbits/s speed=65.4x    frame=744890 fps=3916 q=-1.0 size=12627200kB time=03:27:19.97 bitrate=8315.3kbits/s speed=65.4x    frame=746837 fps=3916 q=-1.0 size=12663552kB time=03:27:52.41 bitrate=8317.5kbits/s speed=65.4x    frame=748781 fps=3916 q=-1.0 size=12698368kB time=03:28:24.80 bitrate=8318.8kbits/s speed=65.4x    frame=751655 fps=3921 q=-1.0 size=12734208kB time=03:29:12.65 bitrate=8310.5kbits/s speed=65.5x    frame=753457 fps=3920 q=-1.0 size=12770816kB time=03:29:42.68 bitrate=8314.5kbits/s speed=65.5x    frame=755295 fps=3919 q=-1.0 size=12804352kB time=03:30:13.30 bitrate=8316.1kbits/s speed=65.5x    frame=757361 fps=3920 q=-1.0 size=12839424kB time=03:30:47.72 bitrate=8316.2kbits/s speed=65.5x    frame=759051 fps=3919 q=-1.0 size=12873984kB time=03:31:15.86 bitrate=8320.0kbits/s speed=65.4x    frame=760898 fps=3918 q=-1.0 size=12906752kB time=03:31:46.66 bitrate=8321.0kbits/s speed=65.4x    frame=762631 fps=3917 q=-1.0 size=12941312kB time=03:32:15.53 bitrate=8324.4kbits/s speed=65.4x    frame=764488 fps=3916 q=-1.0 size=12977408kB time=03:32:46.46 bitrate=8327.4kbits/s speed=65.4x    frame=767493 fps=3922 q=-1.0 size=13010688kB time=03:33:36.56 bitrate=8316.1kbits/s speed=65.5x    frame=770380 fps=3926 q=-1.0 size=13044480kB time=03:34:24.62 bitrate=8306.5kbits/s speed=65.6x    frame=773233 fps=3931 q=-1.0 size=13081088kB time=03:35:12.16 bitrate=8299.2kbits/s speed=65.6x    frame=775868 fps=3934 q=-1.0 size=13114880kB time=03:35:56.06 bitrate=8292.4kbits/s speed=65.7x    frame=778353 fps=3937 q=-1.0 size=13150976kB time=03:36:37.42 bitrate=8288.8kbits/s speed=65.7x    frame=780730 fps=3939 q=-1.0 size=13187072kB time=03:37:17.02 bitrate=8286.3kbits/s speed=65.8x    frame=782887 fps=3940 q=-1.0 size=13221376kB time=03:37:52.95 bitrate=8285.0kbits/s speed=65.8x    frame=784834 fps=3940 q=-1.0 size=13259776kB time=03:38:25.39 bitrate=8288.5kbits/s speed=65.8x    frame=788615 fps=3949 q=-1.0 Lsize=13294992kB time=03:39:28.44 bitrate=8270.7kbits/s speed=65.9x    
video:12955374kB audio:313190kB subtitle:0kB other streams:0kB global headers:0kB muxing overhead: 0.199182%
